<mxfile host="Electron" modified="2023-05-22T22:47:00.398Z" agent="Mozilla/5.0 (Windows NT 10.0; Win64; x64) AppleWebKit/537.36 (KHTML, like Gecko) draw.io/21.2.8 Chrome/112.0.5615.165 Electron/24.2.0 Safari/537.36" etag="lkNYWWrEAzsweiSwqJ80" version="21.2.8" type="device">
  <diagram name="PÃ¡gina-1" id="EMFpKlAKQNcZi5i-DLMq">
    <mxGraphModel dx="1615" dy="955" grid="1" gridSize="10" guides="1" tooltips="1" connect="1" arrows="1" fold="1" page="1" pageScale="1" pageWidth="827" pageHeight="1169" math="0" shadow="0">
      <root>
        <mxCell id="0" />
        <mxCell id="1" parent="0" />
        <mxCell id="8bRAlZ4r7Kj0BLFmt75f-137" value="" style="rounded=0;whiteSpace=wrap;html=1;" vertex="1" parent="1">
          <mxGeometry x="90" y="600" width="990" height="630" as="geometry" />
        </mxCell>
        <mxCell id="8bRAlZ4r7Kj0BLFmt75f-61" value="" style="endArrow=none;html=1;rounded=0;exitX=1;exitY=0.5;exitDx=0;exitDy=0;" edge="1" parent="1" source="8bRAlZ4r7Kj0BLFmt75f-85" target="8bRAlZ4r7Kj0BLFmt75f-84">
          <mxGeometry relative="1" as="geometry">
            <mxPoint x="467.4707414201275" y="1070.224508005545" as="sourcePoint" />
            <mxPoint x="494" y="1000" as="targetPoint" />
          </mxGeometry>
        </mxCell>
        <mxCell id="8bRAlZ4r7Kj0BLFmt75f-62" value="" style="endArrow=none;html=1;rounded=0;" edge="1" parent="1" source="8bRAlZ4r7Kj0BLFmt75f-63" target="8bRAlZ4r7Kj0BLFmt75f-84">
          <mxGeometry relative="1" as="geometry">
            <mxPoint x="567.1168674719845" y="909.3246987920234" as="sourcePoint" />
            <mxPoint x="538.1818181818182" y="1000" as="targetPoint" />
          </mxGeometry>
        </mxCell>
        <mxCell id="8bRAlZ4r7Kj0BLFmt75f-63" value="&lt;font style=&quot;font-size: 19px;&quot;&gt;email&lt;/font&gt;" style="ellipse;whiteSpace=wrap;html=1;align=center;" vertex="1" parent="1">
          <mxGeometry x="353" y="990" width="100" height="40" as="geometry" />
        </mxCell>
        <mxCell id="8bRAlZ4r7Kj0BLFmt75f-64" value="&lt;font style=&quot;font-size: 19px;&quot;&gt;USER&lt;/font&gt;" style="whiteSpace=wrap;html=1;align=center;" vertex="1" parent="1">
          <mxGeometry x="470" y="760" width="100" height="40" as="geometry" />
        </mxCell>
        <mxCell id="8bRAlZ4r7Kj0BLFmt75f-65" value="&lt;font style=&quot;font-size: 19px;&quot;&gt;id&lt;/font&gt;" style="ellipse;whiteSpace=wrap;html=1;align=center;fontStyle=4;" vertex="1" parent="1">
          <mxGeometry x="340" y="690" width="100" height="40" as="geometry" />
        </mxCell>
        <mxCell id="8bRAlZ4r7Kj0BLFmt75f-66" value="" style="endArrow=none;html=1;rounded=0;" edge="1" parent="1" source="8bRAlZ4r7Kj0BLFmt75f-101" target="8bRAlZ4r7Kj0BLFmt75f-64">
          <mxGeometry relative="1" as="geometry">
            <mxPoint x="386.7504833827402" y="648.8442938055827" as="sourcePoint" />
            <mxPoint x="434" y="700" as="targetPoint" />
          </mxGeometry>
        </mxCell>
        <mxCell id="8bRAlZ4r7Kj0BLFmt75f-67" value="" style="endArrow=none;html=1;rounded=0;" edge="1" parent="1" source="8bRAlZ4r7Kj0BLFmt75f-101" target="8bRAlZ4r7Kj0BLFmt75f-64">
          <mxGeometry relative="1" as="geometry">
            <mxPoint x="403.9084133184688" y="647.5653648870381" as="sourcePoint" />
            <mxPoint x="502.72727272727275" y="720" as="targetPoint" />
          </mxGeometry>
        </mxCell>
        <mxCell id="8bRAlZ4r7Kj0BLFmt75f-68" value="" style="endArrow=none;html=1;rounded=0;" edge="1" parent="1" source="8bRAlZ4r7Kj0BLFmt75f-69" target="8bRAlZ4r7Kj0BLFmt75f-64">
          <mxGeometry relative="1" as="geometry">
            <mxPoint x="507.9084133184688" y="647.5653648870381" as="sourcePoint" />
            <mxPoint x="620.6666666666667" y="710" as="targetPoint" />
          </mxGeometry>
        </mxCell>
        <mxCell id="8bRAlZ4r7Kj0BLFmt75f-69" value="&lt;font style=&quot;font-size: 19px;&quot;&gt;hashed_pass&lt;/font&gt;" style="ellipse;whiteSpace=wrap;html=1;align=center;fontSize=12;" vertex="1" parent="1">
          <mxGeometry x="553" y="680" width="134" height="40" as="geometry" />
        </mxCell>
        <mxCell id="8bRAlZ4r7Kj0BLFmt75f-70" value="" style="endArrow=none;html=1;rounded=0;" edge="1" parent="1" source="8bRAlZ4r7Kj0BLFmt75f-64" target="8bRAlZ4r7Kj0BLFmt75f-86">
          <mxGeometry relative="1" as="geometry">
            <mxPoint x="490" y="840" as="sourcePoint" />
            <mxPoint x="520" y="820" as="targetPoint" />
          </mxGeometry>
        </mxCell>
        <mxCell id="8bRAlZ4r7Kj0BLFmt75f-71" value="&lt;font style=&quot;font-size: 19px;&quot;&gt;1&lt;/font&gt;" style="resizable=0;html=1;align=right;verticalAlign=bottom;" connectable="0" vertex="1" parent="8bRAlZ4r7Kj0BLFmt75f-70">
          <mxGeometry x="1" relative="1" as="geometry">
            <mxPoint x="20" as="offset" />
          </mxGeometry>
        </mxCell>
        <mxCell id="8bRAlZ4r7Kj0BLFmt75f-72" value="&lt;font style=&quot;font-size: 19px;&quot;&gt;1&lt;/font&gt;" style="resizable=0;html=1;align=right;verticalAlign=bottom;" connectable="0" vertex="1" parent="8bRAlZ4r7Kj0BLFmt75f-70">
          <mxGeometry x="1" relative="1" as="geometry">
            <mxPoint x="20" y="205" as="offset" />
          </mxGeometry>
        </mxCell>
        <mxCell id="8bRAlZ4r7Kj0BLFmt75f-73" value="&lt;font style=&quot;font-size: 19px;&quot;&gt;1&lt;/font&gt;" style="resizable=0;html=1;align=right;verticalAlign=bottom;" connectable="0" vertex="1" parent="8bRAlZ4r7Kj0BLFmt75f-70">
          <mxGeometry x="1" relative="1" as="geometry">
            <mxPoint x="100" y="130" as="offset" />
          </mxGeometry>
        </mxCell>
        <mxCell id="8bRAlZ4r7Kj0BLFmt75f-74" value="&lt;font style=&quot;font-size: 19px;&quot;&gt;1&lt;/font&gt;" style="resizable=0;html=1;align=right;verticalAlign=bottom;" connectable="0" vertex="1" parent="8bRAlZ4r7Kj0BLFmt75f-70">
          <mxGeometry x="1" relative="1" as="geometry">
            <mxPoint x="260" y="-70" as="offset" />
          </mxGeometry>
        </mxCell>
        <mxCell id="8bRAlZ4r7Kj0BLFmt75f-75" value="&lt;font style=&quot;font-size: 19px;&quot;&gt;1&lt;/font&gt;" style="resizable=0;html=1;align=right;verticalAlign=bottom;" connectable="0" vertex="1" parent="8bRAlZ4r7Kj0BLFmt75f-70">
          <mxGeometry x="1" relative="1" as="geometry">
            <mxPoint x="130" y="-70" as="offset" />
          </mxGeometry>
        </mxCell>
        <mxCell id="8bRAlZ4r7Kj0BLFmt75f-76" value="&lt;font style=&quot;font-size: 19px;&quot;&gt;1&lt;/font&gt;" style="resizable=0;html=1;align=right;verticalAlign=bottom;" connectable="0" vertex="1" parent="8bRAlZ4r7Kj0BLFmt75f-70">
          <mxGeometry x="1" relative="1" as="geometry">
            <mxPoint x="-250" y="-50" as="offset" />
          </mxGeometry>
        </mxCell>
        <mxCell id="8bRAlZ4r7Kj0BLFmt75f-77" value="&lt;font style=&quot;font-size: 19px;&quot;&gt;1&lt;/font&gt;" style="resizable=0;html=1;align=right;verticalAlign=bottom;" connectable="0" vertex="1" parent="8bRAlZ4r7Kj0BLFmt75f-70">
          <mxGeometry x="1" relative="1" as="geometry">
            <mxPoint x="-120" y="-50" as="offset" />
          </mxGeometry>
        </mxCell>
        <mxCell id="8bRAlZ4r7Kj0BLFmt75f-78" value="" style="endArrow=none;html=1;rounded=0;shape=link;exitX=0.5;exitY=0;exitDx=0;exitDy=0;" edge="1" parent="1" source="8bRAlZ4r7Kj0BLFmt75f-84" target="8bRAlZ4r7Kj0BLFmt75f-86">
          <mxGeometry relative="1" as="geometry">
            <mxPoint x="520" y="960" as="sourcePoint" />
            <mxPoint x="520" y="880" as="targetPoint" />
          </mxGeometry>
        </mxCell>
        <mxCell id="8bRAlZ4r7Kj0BLFmt75f-79" value="&lt;font style=&quot;font-size: 19px;&quot;&gt;N&lt;/font&gt;" style="resizable=0;html=1;align=right;verticalAlign=bottom;" connectable="0" vertex="1" parent="8bRAlZ4r7Kj0BLFmt75f-78">
          <mxGeometry x="1" relative="1" as="geometry">
            <mxPoint x="20" y="30" as="offset" />
          </mxGeometry>
        </mxCell>
        <mxCell id="8bRAlZ4r7Kj0BLFmt75f-80" value="&lt;font style=&quot;font-size: 19px;&quot;&gt;N&lt;/font&gt;" style="resizable=0;html=1;align=right;verticalAlign=bottom;" connectable="0" vertex="1" parent="8bRAlZ4r7Kj0BLFmt75f-78">
          <mxGeometry x="1" relative="1" as="geometry">
            <mxPoint x="240" y="70" as="offset" />
          </mxGeometry>
        </mxCell>
        <mxCell id="8bRAlZ4r7Kj0BLFmt75f-81" value="&lt;font style=&quot;font-size: 19px;&quot;&gt;N&lt;/font&gt;" style="resizable=0;html=1;align=right;verticalAlign=bottom;" connectable="0" vertex="1" parent="8bRAlZ4r7Kj0BLFmt75f-78">
          <mxGeometry x="1" relative="1" as="geometry">
            <mxPoint x="20" y="225" as="offset" />
          </mxGeometry>
        </mxCell>
        <mxCell id="8bRAlZ4r7Kj0BLFmt75f-82" style="edgeStyle=orthogonalEdgeStyle;rounded=0;orthogonalLoop=1;jettySize=auto;html=1;endArrow=none;endFill=0;" edge="1" parent="1" source="8bRAlZ4r7Kj0BLFmt75f-84" target="8bRAlZ4r7Kj0BLFmt75f-89">
          <mxGeometry relative="1" as="geometry">
            <mxPoint x="675" y="980" as="targetPoint" />
          </mxGeometry>
        </mxCell>
        <mxCell id="8bRAlZ4r7Kj0BLFmt75f-83" style="edgeStyle=orthogonalEdgeStyle;rounded=0;orthogonalLoop=1;jettySize=auto;html=1;endArrow=none;endFill=0;shape=link;" edge="1" parent="1" source="8bRAlZ4r7Kj0BLFmt75f-84" target="8bRAlZ4r7Kj0BLFmt75f-94">
          <mxGeometry relative="1" as="geometry" />
        </mxCell>
        <mxCell id="8bRAlZ4r7Kj0BLFmt75f-84" value="&lt;font style=&quot;font-size: 19px;&quot;&gt;DEVICE&lt;/font&gt;" style="whiteSpace=wrap;html=1;align=center;" vertex="1" parent="1">
          <mxGeometry x="470" y="960" width="100" height="40" as="geometry" />
        </mxCell>
        <mxCell id="8bRAlZ4r7Kj0BLFmt75f-85" value="&lt;font style=&quot;font-size: 19px;&quot;&gt;id&lt;/font&gt;" style="ellipse;whiteSpace=wrap;html=1;align=center;fontStyle=4;" vertex="1" parent="1">
          <mxGeometry x="353" y="930" width="100" height="40" as="geometry" />
        </mxCell>
        <mxCell id="8bRAlZ4r7Kj0BLFmt75f-86" value="&lt;font style=&quot;font-size: 19px;&quot;&gt;has&lt;/font&gt;" style="shape=rhombus;perimeter=rhombusPerimeter;whiteSpace=wrap;html=1;align=center;" vertex="1" parent="1">
          <mxGeometry x="460" y="850" width="120" height="60" as="geometry" />
        </mxCell>
        <mxCell id="8bRAlZ4r7Kj0BLFmt75f-87" value="" style="endArrow=none;html=1;rounded=0;" edge="1" parent="1" source="8bRAlZ4r7Kj0BLFmt75f-90" target="8bRAlZ4r7Kj0BLFmt75f-100">
          <mxGeometry relative="1" as="geometry">
            <mxPoint x="890" y="1060" as="sourcePoint" />
            <mxPoint x="949.4000000000001" y="1000" as="targetPoint" />
          </mxGeometry>
        </mxCell>
        <mxCell id="8bRAlZ4r7Kj0BLFmt75f-88" value="" style="endArrow=none;html=1;rounded=0;" edge="1" parent="1" source="8bRAlZ4r7Kj0BLFmt75f-91" target="8bRAlZ4r7Kj0BLFmt75f-100">
          <mxGeometry relative="1" as="geometry">
            <mxPoint x="1064" y="1080" as="sourcePoint" />
            <mxPoint x="972" y="1000" as="targetPoint" />
          </mxGeometry>
        </mxCell>
        <mxCell id="8bRAlZ4r7Kj0BLFmt75f-89" value="has" style="shape=rhombus;double=1;perimeter=rhombusPerimeter;whiteSpace=wrap;html=1;align=center;fontSize=19;" vertex="1" parent="1">
          <mxGeometry x="620" y="950" width="120" height="60" as="geometry" />
        </mxCell>
        <mxCell id="8bRAlZ4r7Kj0BLFmt75f-90" value="&lt;span style=&quot;border-bottom: 1px dotted; font-size: 19px;&quot;&gt;sensor&lt;/span&gt;" style="ellipse;whiteSpace=wrap;html=1;align=center;fontSize=19;" vertex="1" parent="1">
          <mxGeometry x="740" y="1020" width="100" height="40" as="geometry" />
        </mxCell>
        <mxCell id="8bRAlZ4r7Kj0BLFmt75f-91" value="&lt;span style=&quot;border-bottom: 1px dotted&quot;&gt;&lt;font style=&quot;font-size: 19px;&quot;&gt;timestamp&lt;/font&gt;&lt;/span&gt;" style="ellipse;whiteSpace=wrap;html=1;align=center;" vertex="1" parent="1">
          <mxGeometry x="870" y="1020" width="100" height="40" as="geometry" />
        </mxCell>
        <mxCell id="8bRAlZ4r7Kj0BLFmt75f-92" style="edgeStyle=orthogonalEdgeStyle;rounded=0;orthogonalLoop=1;jettySize=auto;html=1;endArrow=none;endFill=0;shape=link;entryX=0.5;entryY=1;entryDx=0;entryDy=0;" edge="1" parent="1" source="8bRAlZ4r7Kj0BLFmt75f-93" target="8bRAlZ4r7Kj0BLFmt75f-94">
          <mxGeometry relative="1" as="geometry">
            <mxPoint x="700" y="1205" as="targetPoint" />
          </mxGeometry>
        </mxCell>
        <mxCell id="8bRAlZ4r7Kj0BLFmt75f-93" value="&lt;font style=&quot;font-size: 19px;&quot;&gt;DEVICE_WAKE_UP_LOG&lt;/font&gt;" style="shape=ext;margin=3;double=1;whiteSpace=wrap;html=1;align=center;fontSize=8;fontStyle=0" vertex="1" parent="1">
          <mxGeometry x="400" y="1160" width="240" height="40" as="geometry" />
        </mxCell>
        <mxCell id="8bRAlZ4r7Kj0BLFmt75f-94" value="has" style="shape=rhombus;double=1;perimeter=rhombusPerimeter;whiteSpace=wrap;html=1;align=center;fontSize=19;" vertex="1" parent="1">
          <mxGeometry x="460" y="1050" width="120" height="60" as="geometry" />
        </mxCell>
        <mxCell id="8bRAlZ4r7Kj0BLFmt75f-95" value="" style="endArrow=none;html=1;rounded=0;" edge="1" parent="1" source="8bRAlZ4r7Kj0BLFmt75f-96" target="8bRAlZ4r7Kj0BLFmt75f-93">
          <mxGeometry relative="1" as="geometry">
            <mxPoint x="500.1369307133052" y="1276.6936993515408" as="sourcePoint" />
            <mxPoint x="1370" y="1235" as="targetPoint" />
          </mxGeometry>
        </mxCell>
        <mxCell id="8bRAlZ4r7Kj0BLFmt75f-96" value="&lt;span style=&quot;font-size: 19px;&quot;&gt;reason&lt;/span&gt;" style="ellipse;whiteSpace=wrap;html=1;align=center;" vertex="1" parent="1">
          <mxGeometry x="587" y="1100" width="100" height="40" as="geometry" />
        </mxCell>
        <mxCell id="8bRAlZ4r7Kj0BLFmt75f-97" value="timestamp" style="ellipse;whiteSpace=wrap;html=1;align=center;fontSize=19;" vertex="1" parent="1">
          <mxGeometry x="360" y="1100" width="100" height="40" as="geometry" />
        </mxCell>
        <mxCell id="8bRAlZ4r7Kj0BLFmt75f-98" value="" style="endArrow=none;html=1;rounded=0;" edge="1" parent="1" source="8bRAlZ4r7Kj0BLFmt75f-97" target="8bRAlZ4r7Kj0BLFmt75f-93">
          <mxGeometry relative="1" as="geometry">
            <mxPoint x="590" y="1295" as="sourcePoint" />
            <mxPoint x="590" y="1235" as="targetPoint" />
          </mxGeometry>
        </mxCell>
        <mxCell id="8bRAlZ4r7Kj0BLFmt75f-99" value="" style="edgeStyle=orthogonalEdgeStyle;rounded=0;orthogonalLoop=1;jettySize=auto;html=1;shape=link;" edge="1" parent="1" source="8bRAlZ4r7Kj0BLFmt75f-89" target="8bRAlZ4r7Kj0BLFmt75f-100">
          <mxGeometry relative="1" as="geometry">
            <mxPoint x="760" y="980" as="sourcePoint" />
            <mxPoint x="899" y="980" as="targetPoint" />
          </mxGeometry>
        </mxCell>
        <mxCell id="8bRAlZ4r7Kj0BLFmt75f-100" value="SENSOR_ERROR" style="shape=ext;margin=3;double=1;whiteSpace=wrap;html=1;align=center;fontSize=10;fontStyle=1" vertex="1" parent="1">
          <mxGeometry x="790" y="960" width="100" height="40" as="geometry" />
        </mxCell>
        <mxCell id="8bRAlZ4r7Kj0BLFmt75f-101" value="&lt;font style=&quot;font-size: 19px;&quot;&gt;email&lt;/font&gt;" style="ellipse;whiteSpace=wrap;html=1;align=center;" vertex="1" parent="1">
          <mxGeometry x="500" y="640" width="100" height="40" as="geometry" />
        </mxCell>
        <mxCell id="8bRAlZ4r7Kj0BLFmt75f-102" value="" style="endArrow=none;html=1;rounded=0;" edge="1" parent="1" source="8bRAlZ4r7Kj0BLFmt75f-65" target="8bRAlZ4r7Kj0BLFmt75f-64">
          <mxGeometry relative="1" as="geometry">
            <mxPoint x="436" y="754" as="sourcePoint" />
            <mxPoint x="480" y="771" as="targetPoint" />
          </mxGeometry>
        </mxCell>
        <mxCell id="8bRAlZ4r7Kj0BLFmt75f-103" style="edgeStyle=orthogonalEdgeStyle;rounded=0;orthogonalLoop=1;jettySize=auto;html=1;shape=link;" edge="1" parent="1" source="8bRAlZ4r7Kj0BLFmt75f-104" target="8bRAlZ4r7Kj0BLFmt75f-106">
          <mxGeometry relative="1" as="geometry" />
        </mxCell>
        <mxCell id="8bRAlZ4r7Kj0BLFmt75f-104" value="PASSWORD" style="shape=ext;margin=3;double=1;whiteSpace=wrap;html=1;align=center;fontStyle=1" vertex="1" parent="1">
          <mxGeometry x="830" y="760" width="100" height="40" as="geometry" />
        </mxCell>
        <mxCell id="8bRAlZ4r7Kj0BLFmt75f-105" style="edgeStyle=orthogonalEdgeStyle;rounded=0;orthogonalLoop=1;jettySize=auto;html=1;endArrow=none;endFill=0;" edge="1" parent="1" source="8bRAlZ4r7Kj0BLFmt75f-106" target="8bRAlZ4r7Kj0BLFmt75f-64">
          <mxGeometry relative="1" as="geometry" />
        </mxCell>
        <mxCell id="8bRAlZ4r7Kj0BLFmt75f-106" value="has" style="shape=rhombus;double=1;perimeter=rhombusPerimeter;whiteSpace=wrap;html=1;align=center;fontSize=19;" vertex="1" parent="1">
          <mxGeometry x="650" y="750" width="120" height="60" as="geometry" />
        </mxCell>
        <mxCell id="8bRAlZ4r7Kj0BLFmt75f-107" value="&lt;font style=&quot;font-size: 19px;&quot;&gt;value&lt;/font&gt;" style="ellipse;whiteSpace=wrap;html=1;align=center;" vertex="1" parent="1">
          <mxGeometry x="830" y="680" width="100" height="40" as="geometry" />
        </mxCell>
        <mxCell id="8bRAlZ4r7Kj0BLFmt75f-108" value="" style="endArrow=none;html=1;rounded=0;" edge="1" parent="1" source="8bRAlZ4r7Kj0BLFmt75f-107" target="8bRAlZ4r7Kj0BLFmt75f-104">
          <mxGeometry relative="1" as="geometry">
            <mxPoint x="634" y="736" as="sourcePoint" />
            <mxPoint x="569" y="770" as="targetPoint" />
          </mxGeometry>
        </mxCell>
        <mxCell id="8bRAlZ4r7Kj0BLFmt75f-109" value="TOKEN" style="shape=ext;margin=3;double=1;whiteSpace=wrap;html=1;align=center;fontStyle=1" vertex="1" parent="1">
          <mxGeometry x="130" y="780" width="100" height="40" as="geometry" />
        </mxCell>
        <mxCell id="8bRAlZ4r7Kj0BLFmt75f-110" style="edgeStyle=orthogonalEdgeStyle;rounded=0;orthogonalLoop=1;jettySize=auto;html=1;endArrow=none;endFill=0;entryX=0;entryY=1;entryDx=0;entryDy=0;" edge="1" parent="1" source="8bRAlZ4r7Kj0BLFmt75f-111" target="8bRAlZ4r7Kj0BLFmt75f-64">
          <mxGeometry relative="1" as="geometry">
            <Array as="points">
              <mxPoint x="450" y="800" />
              <mxPoint x="450" y="800" />
            </Array>
          </mxGeometry>
        </mxCell>
        <mxCell id="8bRAlZ4r7Kj0BLFmt75f-111" value="has" style="shape=rhombus;double=1;perimeter=rhombusPerimeter;whiteSpace=wrap;html=1;align=center;fontSize=19;" vertex="1" parent="1">
          <mxGeometry x="270" y="770" width="120" height="60" as="geometry" />
        </mxCell>
        <mxCell id="8bRAlZ4r7Kj0BLFmt75f-112" style="edgeStyle=orthogonalEdgeStyle;rounded=0;orthogonalLoop=1;jettySize=auto;html=1;shape=link;" edge="1" parent="1" source="8bRAlZ4r7Kj0BLFmt75f-109" target="8bRAlZ4r7Kj0BLFmt75f-111">
          <mxGeometry relative="1" as="geometry" />
        </mxCell>
        <mxCell id="8bRAlZ4r7Kj0BLFmt75f-113" value="&lt;font style=&quot;font-size: 19px;&quot;&gt;value&lt;/font&gt;" style="ellipse;whiteSpace=wrap;html=1;align=center;" vertex="1" parent="1">
          <mxGeometry x="130" y="710" width="100" height="40" as="geometry" />
        </mxCell>
        <mxCell id="8bRAlZ4r7Kj0BLFmt75f-114" value="" style="endArrow=none;html=1;rounded=0;" edge="1" parent="1" source="8bRAlZ4r7Kj0BLFmt75f-113" target="8bRAlZ4r7Kj0BLFmt75f-109">
          <mxGeometry relative="1" as="geometry">
            <mxPoint x="431" y="766" as="sourcePoint" />
            <mxPoint x="480" y="790" as="targetPoint" />
          </mxGeometry>
        </mxCell>
        <mxCell id="8bRAlZ4r7Kj0BLFmt75f-115" value="&lt;font style=&quot;font-size: 19px;&quot;&gt;iv&lt;/font&gt;" style="ellipse;whiteSpace=wrap;html=1;align=center;" vertex="1" parent="1">
          <mxGeometry x="130" y="850" width="100" height="40" as="geometry" />
        </mxCell>
        <mxCell id="8bRAlZ4r7Kj0BLFmt75f-116" value="" style="endArrow=none;html=1;rounded=0;" edge="1" parent="1" source="8bRAlZ4r7Kj0BLFmt75f-115" target="8bRAlZ4r7Kj0BLFmt75f-109">
          <mxGeometry relative="1" as="geometry">
            <mxPoint x="431" y="906" as="sourcePoint" />
            <mxPoint x="180" y="920" as="targetPoint" />
          </mxGeometry>
        </mxCell>
        <mxCell id="8bRAlZ4r7Kj0BLFmt75f-117" value="" style="endArrow=none;html=1;rounded=0;" edge="1" parent="1" source="8bRAlZ4r7Kj0BLFmt75f-118" target="8bRAlZ4r7Kj0BLFmt75f-104">
          <mxGeometry relative="1" as="geometry">
            <mxPoint x="776.4353791772778" y="713.8139110253568" as="sourcePoint" />
            <mxPoint x="910" y="760" as="targetPoint" />
          </mxGeometry>
        </mxCell>
        <mxCell id="8bRAlZ4r7Kj0BLFmt75f-118" value="&lt;font style=&quot;font-size: 19px;&quot;&gt;salt&lt;/font&gt;" style="ellipse;whiteSpace=wrap;html=1;align=center;" vertex="1" parent="1">
          <mxGeometry x="700" y="680" width="110" height="40" as="geometry" />
        </mxCell>
        <mxCell id="8bRAlZ4r7Kj0BLFmt75f-119" value="&lt;font style=&quot;font-size: 19px;&quot;&gt;role&lt;/font&gt;" style="ellipse;whiteSpace=wrap;html=1;align=center;" vertex="1" parent="1">
          <mxGeometry x="390" y="640" width="100" height="40" as="geometry" />
        </mxCell>
        <mxCell id="8bRAlZ4r7Kj0BLFmt75f-120" value="" style="endArrow=none;html=1;rounded=0;" edge="1" parent="1" source="8bRAlZ4r7Kj0BLFmt75f-119" target="8bRAlZ4r7Kj0BLFmt75f-64">
          <mxGeometry relative="1" as="geometry">
            <mxPoint x="452" y="728" as="sourcePoint" />
            <mxPoint x="505" y="770" as="targetPoint" />
          </mxGeometry>
        </mxCell>
        <mxCell id="8bRAlZ4r7Kj0BLFmt75f-121" value="" style="rounded=0;whiteSpace=wrap;html=1;" vertex="1" parent="1">
          <mxGeometry x="980" y="740" width="350" height="240" as="geometry" />
        </mxCell>
        <mxCell id="8bRAlZ4r7Kj0BLFmt75f-122" value="" style="endArrow=none;html=1;rounded=0;" edge="1" parent="1" source="8bRAlZ4r7Kj0BLFmt75f-124" target="8bRAlZ4r7Kj0BLFmt75f-130">
          <mxGeometry relative="1" as="geometry">
            <mxPoint x="1155" y="830" as="sourcePoint" />
            <mxPoint x="1126.6666666666667" y="860" as="targetPoint" />
          </mxGeometry>
        </mxCell>
        <mxCell id="8bRAlZ4r7Kj0BLFmt75f-123" value="" style="endArrow=none;html=1;rounded=0;" edge="1" parent="1" source="8bRAlZ4r7Kj0BLFmt75f-128" target="8bRAlZ4r7Kj0BLFmt75f-130">
          <mxGeometry relative="1" as="geometry">
            <mxPoint x="1238.4492936985519" y="826.94725934135" as="sourcePoint" />
            <mxPoint x="1186.6666666666667" y="860" as="targetPoint" />
          </mxGeometry>
        </mxCell>
        <mxCell id="8bRAlZ4r7Kj0BLFmt75f-124" value="type" style="ellipse;whiteSpace=wrap;html=1;align=center;fontStyle=4;fontSize=19;" vertex="1" parent="1">
          <mxGeometry x="1020" y="800" width="100" height="40" as="geometry" />
        </mxCell>
        <mxCell id="8bRAlZ4r7Kj0BLFmt75f-125" value="BUCKET" style="text;html=1;align=center;verticalAlign=middle;resizable=0;points=[];autosize=1;strokeColor=none;fillColor=none;fontSize=19;fontStyle=1" vertex="1" parent="1">
          <mxGeometry x="1230" y="740" width="100" height="40" as="geometry" />
        </mxCell>
        <mxCell id="8bRAlZ4r7Kj0BLFmt75f-126" value="value" style="ellipse;whiteSpace=wrap;html=1;align=center;fontSize=19;" vertex="1" parent="1">
          <mxGeometry x="1105" y="920" width="100" height="40" as="geometry" />
        </mxCell>
        <mxCell id="8bRAlZ4r7Kj0BLFmt75f-127" value="" style="endArrow=none;html=1;rounded=0;" edge="1" parent="1" source="8bRAlZ4r7Kj0BLFmt75f-126" target="8bRAlZ4r7Kj0BLFmt75f-130">
          <mxGeometry relative="1" as="geometry">
            <mxPoint x="1248" y="837" as="sourcePoint" />
            <mxPoint x="1155" y="900" as="targetPoint" />
          </mxGeometry>
        </mxCell>
        <mxCell id="8bRAlZ4r7Kj0BLFmt75f-128" value="timestamp" style="ellipse;whiteSpace=wrap;html=1;align=center;fontStyle=4;fontSize=19;" vertex="1" parent="1">
          <mxGeometry x="1200" y="800" width="100" height="40" as="geometry" />
        </mxCell>
        <mxCell id="8bRAlZ4r7Kj0BLFmt75f-129" value="INDLUX DB" style="text;html=1;align=center;verticalAlign=middle;resizable=0;points=[];autosize=1;strokeColor=none;fillColor=none;fontSize=19;fontStyle=1" vertex="1" parent="1">
          <mxGeometry x="980" y="740" width="130" height="40" as="geometry" />
        </mxCell>
        <mxCell id="8bRAlZ4r7Kj0BLFmt75f-130" value="RECORD" style="shape=ext;margin=3;double=1;whiteSpace=wrap;html=1;align=center;fontSize=19;" vertex="1" parent="1">
          <mxGeometry x="1105" y="860" width="100" height="40" as="geometry" />
        </mxCell>
        <mxCell id="8bRAlZ4r7Kj0BLFmt75f-131" value="has" style="shape=rhombus;double=1;perimeter=rhombusPerimeter;whiteSpace=wrap;html=1;align=center;fontSize=19;" vertex="1" parent="1">
          <mxGeometry x="750" y="850" width="120" height="60" as="geometry" />
        </mxCell>
        <mxCell id="8bRAlZ4r7Kj0BLFmt75f-132" style="edgeStyle=orthogonalEdgeStyle;rounded=0;orthogonalLoop=1;jettySize=auto;html=1;exitX=1;exitY=0;exitDx=0;exitDy=0;endArrow=none;endFill=0;" edge="1" target="8bRAlZ4r7Kj0BLFmt75f-131" parent="1" source="8bRAlZ4r7Kj0BLFmt75f-84">
          <mxGeometry relative="1" as="geometry">
            <mxPoint x="750" y="880" as="targetPoint" />
            <Array as="points">
              <mxPoint x="630" y="960" />
              <mxPoint x="630" y="880" />
            </Array>
            <mxPoint x="600" y="960" as="sourcePoint" />
          </mxGeometry>
        </mxCell>
        <mxCell id="8bRAlZ4r7Kj0BLFmt75f-133" style="edgeStyle=orthogonalEdgeStyle;rounded=0;orthogonalLoop=1;jettySize=auto;html=1;endArrow=none;endFill=0;shape=link;" edge="1" source="8bRAlZ4r7Kj0BLFmt75f-131" parent="1" target="8bRAlZ4r7Kj0BLFmt75f-130">
          <mxGeometry relative="1" as="geometry">
            <mxPoint x="870" y="880" as="sourcePoint" />
            <mxPoint x="1075" y="880" as="targetPoint" />
          </mxGeometry>
        </mxCell>
        <mxCell id="8bRAlZ4r7Kj0BLFmt75f-136" value="&lt;font style=&quot;font-size: 19px;&quot;&gt;N&lt;/font&gt;" style="resizable=0;html=1;align=right;verticalAlign=bottom;" connectable="0" vertex="1" parent="1">
          <mxGeometry x="880" y="880.0033333333332" as="geometry" />
        </mxCell>
        <mxCell id="8bRAlZ4r7Kj0BLFmt75f-138" value="POSTGRES SQL" style="text;html=1;align=center;verticalAlign=middle;resizable=0;points=[];autosize=1;strokeColor=none;fillColor=none;fontSize=19;fontStyle=1" vertex="1" parent="1">
          <mxGeometry x="90" y="600" width="170" height="40" as="geometry" />
        </mxCell>
      </root>
    </mxGraphModel>
  </diagram>
</mxfile>
